<?xml version="1.0" encoding="UTF-8" standalone="no"?>

<svg width="1000" height="1000"
  xmlns:dc="http://purl.org/dc/elements/1.1/"
  xmlns:cc="http://creativecommons.org/ns#"
  xmlns:rdf="http://www.w3.org/1999/02/22-rdf-syntax-ns#"
  xmlns:svg="http://www.w3.org/2000/svg"
  xmlns="http://www.w3.org/2000/svg">

  <!--
  "m" (or "M") means "moveto"
  Others are "H" (horizontal) and "V" (vertical)
  The first coordinate is absolute, the rest are relative.

  "m 10,10 h 200" (move to x,y then move horizontally by 200)
  -->
  <g transform="translate(0 0) scale(0.5)">
    <g id="board">
      <rect
        style="fill:#d6b489;"
        x="0"
        y="0"
        width="800"
        height="800"
      />

      <!-- Letters and numbers

      I've manually nudged the values until they looked about centered. There must be a way to do this automatically.

      Most Go boards have no letters or numbers so these should be optional. (We don't have to include them
      in the first version of the game.)
      -->

      <g>
        <text font-family="Verdana" font-size="50" x="108" y="65" text-anchor="middle" style="stroke:#221a18;">
          A
        </text>
        <text font-family="Verdana" font-size="50" x="208" y="65" text-anchor="middle" style="stroke:#221a18;">
          B
        </text>
        <text font-family="Verdana" font-size="50" x="308" y="65" text-anchor="middle" style="stroke:#221a18;">
          C
        </text>
        <text font-family="Verdana" font-size="50" x="408" y="65" text-anchor="middle" style="stroke:#221a18;">
          D
        </text>
        <text font-family="Verdana" font-size="50" x="508" y="65" text-anchor="middle" style="stroke:#221a18;">
          E
        </text>
        <text font-family="Verdana" font-size="50" x="608" y="65" text-anchor="middle" style="stroke:#221a18;">
          F
        </text>
        <text font-family="Verdana" font-size="50" x="708" y="65" text-anchor="middle" style="stroke:#221a18;">
          G
        </text>
      </g>

      <g>
        <text font-family="Verdana" font-size="50" x="55" y="125" text-anchor="middle" style="stroke:#221a18;">
          7
        </text>
        <text font-family="Verdana" font-size="50" x="55" y="225" text-anchor="middle" style="stroke:#221a18;">
          6
        </text>
        <text font-family="Verdana" font-size="50" x="55" y="325" text-anchor="middle" style="stroke:#221a18;">
          5
        </text>
        <text font-family="Verdana" font-size="50" x="55" y="425" text-anchor="middle" style="stroke:#221a18;">
          4
        </text>
        <text font-family="Verdana" font-size="50" x="55" y="525" text-anchor="middle" style="stroke:#221a18;">
          3
        </text>
        <text font-family="Verdana" font-size="50" x="55" y="625" text-anchor="middle" style="stroke:#221a18;">
          2
        </text>
        <text font-family="Verdana" font-size="50" x="55" y="725" text-anchor="middle" style="stroke:#221a18;">
          1
        </text>
      </g>

      <!-- Squares (lines). We're using rectangles here because paths
           wouldn't join up properly at the corners. -->

      <g id="board-boxes">
        <!-- First row -->
        <rect x="100" y="100" width="100" height="100" fill="none" style="stroke:#221a18;stroke-width:7;"/>
        <rect x="200" y="100" width="100" height="100" fill="none" style="stroke:#221a18;stroke-width:7;"/>
        <rect x="300" y="100" width="100" height="100" fill="none" style="stroke:#221a18;stroke-width:7;"/>
        <rect x="400" y="100" width="100" height="100" fill="none" style="stroke:#221a18;stroke-width:7;"/>
        <rect x="500" y="100" width="100" height="100" fill="none" style="stroke:#221a18;stroke-width:7;"/>
        <rect x="600" y="100" width="100" height="100" fill="none" style="stroke:#221a18;stroke-width:7;"/>

        <!-- Second row -->
        <rect x="100" y="200" width="100" height="100" fill="none" style="stroke:#221a18;stroke-width:7;"/>
        <rect x="200" y="200" width="100" height="100" fill="none" style="stroke:#221a18;stroke-width:7;"/>
        <rect x="300" y="200" width="100" height="100" fill="none" style="stroke:#221a18;stroke-width:7;"/>
        <rect x="400" y="200" width="100" height="100" fill="none" style="stroke:#221a18;stroke-width:7;"/>
        <rect x="500" y="200" width="100" height="100" fill="none" style="stroke:#221a18;stroke-width:7;"/>
        <rect x="600" y="200" width="100" height="100" fill="none" style="stroke:#221a18;stroke-width:7;"/>

        <rect x="100" y="300" width="100" height="100" fill="none" style="stroke:#221a18;stroke-width:7;"/>
        <rect x="200" y="300" width="100" height="100" fill="none" style="stroke:#221a18;stroke-width:7;"/>
        <rect x="300" y="300" width="100" height="100" fill="none" style="stroke:#221a18;stroke-width:7;"/>
        <rect x="400" y="300" width="100" height="100" fill="none" style="stroke:#221a18;stroke-width:7;"/>
        <rect x="500" y="300" width="100" height="100" fill="none" style="stroke:#221a18;stroke-width:7;"/>
        <rect x="600" y="300" width="100" height="100" fill="none" style="stroke:#221a18;stroke-width:7;"/>

        <rect x="100" y="400" width="100" height="100" fill="none" style="stroke:#221a18;stroke-width:7;"/>
        <rect x="200" y="400" width="100" height="100" fill="none" style="stroke:#221a18;stroke-width:7;"/>
        <rect x="300" y="400" width="100" height="100" fill="none" style="stroke:#221a18;stroke-width:7;"/>
        <rect x="400" y="400" width="100" height="100" fill="none" style="stroke:#221a18;stroke-width:7;"/>
        <rect x="500" y="400" width="100" height="100" fill="none" style="stroke:#221a18;stroke-width:7;"/>
        <rect x="600" y="400" width="100" height="100" fill="none" style="stroke:#221a18;stroke-width:7;"/>

        <rect x="100" y="500" width="100" height="100" fill="none" style="stroke:#221a18;stroke-width:7;"/>
        <rect x="200" y="500" width="100" height="100" fill="none" style="stroke:#221a18;stroke-width:7;"/>
        <rect x="300" y="500" width="100" height="100" fill="none" style="stroke:#221a18;stroke-width:7;"/>
        <rect x="400" y="500" width="100" height="100" fill="none" style="stroke:#221a18;stroke-width:7;"/>
        <rect x="500" y="500" width="100" height="100" fill="none" style="stroke:#221a18;stroke-width:7;"/>
        <rect x="600" y="500" width="100" height="100" fill="none" style="stroke:#221a18;stroke-width:7;"/>

        <rect x="100" y="600" width="100" height="100" fill="none" style="stroke:#221a18;stroke-width:7;"/>
        <rect x="200" y="600" width="100" height="100" fill="none" style="stroke:#221a18;stroke-width:7;"/>
        <rect x="300" y="600" width="100" height="100" fill="none" style="stroke:#221a18;stroke-width:7;"/>
        <rect x="400" y="600" width="100" height="100" fill="none" style="stroke:#221a18;stroke-width:7;"/>
        <rect x="500" y="600" width="100" height="100" fill="none" style="stroke:#221a18;stroke-width:7;"/>
        <rect x="600" y="600" width="100" height="100" fill="none" style="stroke:#221a18;stroke-width:7;"/>
      </g>

      <!--
      <g id="board-numbers">
      -->

      <!-- Dot -->
      <circle cx="400" cy="400" r="12.5" style="stroke:#221a18;"/>
    </g>
    <g id="stones">
      <!-- Black stone -->
      <g>
        <circle cx="210" cy="210" r="40" style="fill:#000000;opacity:0.14;"/>
        <circle cx="200" cy="200" r="40" style="fill:#000000;"/>
      </g>
      <!-- White stone -->
      <g>
        <circle cx="310" cy="210" r="40" style="fill:#000000;opacity:0.14;"/>
        <circle cx="300" cy="200" r="40" style="fill:#ffffff;"/>
      </g>
    </g>
  </g>
</svg>
