<?xml version="1.0" encoding="UTF-8" standalone="no"?>

<svg width="450" height="450"
  xmlns="http://www.w3.org/2000/svg">

  <!--
  "m" (or "M") means "moveto"
  Others are "H" (horizontal) and "V" (vertical)
  The first coordinate is absolute, the rest are relative.

  "m 10,10 h 200" (move to x,y then move horizontally by 200)
  -->

  <rect id="table" x="0" y="0" width="450" height="450" style="fill:#388156;"/>
  

  <g transform="scale(0.5) translate(50,50)">
    <g id="board">
      <rect
        style="fill:#d6b489;"
        x="50"
        y="50"
        width="700"
        height="700"
      />

      <g id="markings" style="opacity: 0.4;">

      <!-- Squares (lines). We're using rectangles here because paths
           wouldn't join up properly at the corners. -->

      <g id="board-boxes">
        <!-- First row -->
        <rect x="100" y="100" width="100" height="100" fill="none" style="stroke:#221a18;stroke-width:6;"/>
        <rect x="200" y="100" width="100" height="100" fill="none" style="stroke:#221a18;stroke-width:6;"/>
        <rect x="300" y="100" width="100" height="100" fill="none" style="stroke:#221a18;stroke-width:6;"/>
        <rect x="400" y="100" width="100" height="100" fill="none" style="stroke:#221a18;stroke-width:6;"/>
        <rect x="500" y="100" width="100" height="100" fill="none" style="stroke:#221a18;stroke-width:6;"/>
        <rect x="600" y="100" width="100" height="100" fill="none" style="stroke:#221a18;stroke-width:6;"/>

        <!-- Second row -->
        <rect x="100" y="200" width="100" height="100" fill="none" style="stroke:#221a18;stroke-width:6;"/>
        <rect x="200" y="200" width="100" height="100" fill="none" style="stroke:#221a18;stroke-width:6;"/>
        <rect x="300" y="200" width="100" height="100" fill="none" style="stroke:#221a18;stroke-width:6;"/>
        <rect x="400" y="200" width="100" height="100" fill="none" style="stroke:#221a18;stroke-width:6;"/>
        <rect x="500" y="200" width="100" height="100" fill="none" style="stroke:#221a18;stroke-width:6;"/>
        <rect x="600" y="200" width="100" height="100" fill="none" style="stroke:#221a18;stroke-width:6;"/>

        <rect x="100" y="300" width="100" height="100" fill="none" style="stroke:#221a18;stroke-width:6;"/>
        <rect x="200" y="300" width="100" height="100" fill="none" style="stroke:#221a18;stroke-width:6;"/>
        <rect x="300" y="300" width="100" height="100" fill="none" style="stroke:#221a18;stroke-width:6;"/>
        <rect x="400" y="300" width="100" height="100" fill="none" style="stroke:#221a18;stroke-width:6;"/>
        <rect x="500" y="300" width="100" height="100" fill="none" style="stroke:#221a18;stroke-width:6;"/>
        <rect x="600" y="300" width="100" height="100" fill="none" style="stroke:#221a18;stroke-width:6;"/>

        <rect x="100" y="400" width="100" height="100" fill="none" style="stroke:#221a18;stroke-width:6;"/>
        <rect x="200" y="400" width="100" height="100" fill="none" style="stroke:#221a18;stroke-width:6;"/>
        <rect x="300" y="400" width="100" height="100" fill="none" style="stroke:#221a18;stroke-width:6;"/>
        <rect x="400" y="400" width="100" height="100" fill="none" style="stroke:#221a18;stroke-width:6;"/>
        <rect x="500" y="400" width="100" height="100" fill="none" style="stroke:#221a18;stroke-width:6;"/>
        <rect x="600" y="400" width="100" height="100" fill="none" style="stroke:#221a18;stroke-width:6;"/>

        <rect x="100" y="500" width="100" height="100" fill="none" style="stroke:#221a18;stroke-width:6;"/>
        <rect x="200" y="500" width="100" height="100" fill="none" style="stroke:#221a18;stroke-width:6;"/>
        <rect x="300" y="500" width="100" height="100" fill="none" style="stroke:#221a18;stroke-width:6;"/>
        <rect x="400" y="500" width="100" height="100" fill="none" style="stroke:#221a18;stroke-width:6;"/>
        <rect x="500" y="500" width="100" height="100" fill="none" style="stroke:#221a18;stroke-width:6;"/>
        <rect x="600" y="500" width="100" height="100" fill="none" style="stroke:#221a18;stroke-width:6;"/>

        <rect x="100" y="600" width="100" height="100" fill="none" style="stroke:#221a18;stroke-width:6;"/>
        <rect x="200" y="600" width="100" height="100" fill="none" style="stroke:#221a18;stroke-width:6;"/>
        <rect x="300" y="600" width="100" height="100" fill="none" style="stroke:#221a18;stroke-width:6;"/>
        <rect x="400" y="600" width="100" height="100" fill="none" style="stroke:#221a18;stroke-width:6;"/>
        <rect x="500" y="600" width="100" height="100" fill="none" style="stroke:#221a18;stroke-width:6;"/>
        <rect x="600" y="600" width="100" height="100" fill="none" style="stroke:#221a18;stroke-width:6;"/>
      </g>

      <!--
      <g id="board-numbers">
      -->

      <!-- Dot -->
      <circle cx="400" cy="400" r="12.5" style="fill:#221a18;"/>
    </g>

    </g>

    <g id="stones">
      <!-- Black stone -->
      <g>
        <circle cx="210" cy="210" r="40" style="fill:#000000;opacity:0.14;"/>
        <circle cx="200" cy="200" r="40" style="fill:#000000;"/>
      </g>
      <!-- White stone -->
      <g>
        <circle cx="310" cy="210" r="40" style="fill:#000000;opacity:0.14;"/>
        <circle cx="300" cy="200" r="40" style="fill:#ffffff;"/>
      </g>
      <!-- Black stone -->
      <g>
        <circle cx="610" cy="510" r="40" style="fill:#000000;opacity:0.14;"/>
        <circle cx="600" cy="500" r="40" style="fill:#000000;"/>
      </g>
    </g>
  </g>
</svg>
